<?xml version="1.0" standalone="no"?><!DOCTYPE svg PUBLIC "-//W3C//DTD SVG 1.1//EN" "http://www.w3.org/Graphics/SVG/1.1/DTD/svg11.dtd"><svg class="icon" width="200px" height="200.00px" viewBox="0 0 1024 1024" version="1.1" xmlns="http://www.w3.org/2000/svg"><path fill="#606266" d="M981.333333 170.666667l-85.333333 0c-12.8 0-21.333333 8.533333-21.333333 21.333333l0 106.666667-42.666667 0L832 149.333333c0-12.8-8.533333-21.333333-21.333333-21.333333l-85.333333 0c-12.8 0-21.333333 8.533333-21.333333 21.333333l0 106.666667-42.666667 0L661.333333 149.333333c0-12.8-8.533333-21.333333-21.333333-21.333333l-85.333333 0c-12.8 0-21.333333 8.533333-21.333333 21.333333l0 106.666667-42.666667 0L490.666667 192c0-12.8-8.533333-21.333333-21.333333-21.333333l-85.333333 0c-12.8 0-21.333333 8.533333-21.333333 21.333333l0 106.666667-42.666667 0 0-85.333333c0-64-38.4-106.666667-149.333333-106.666667s-149.333333 42.666667-149.333333 106.666667l0 512 2.133333 0c32-27.733333 81.066667-42.666667 147.2-42.666667s115.2 14.933333 147.2 42.666667L320 725.333333l0-42.666667 42.666667 0 0 106.666667c0 12.8 8.533333 21.333333 21.333333 21.333333l85.333333 0c12.8 0 21.333333-8.533333 21.333333-21.333333l0-149.333333 42.666667 0 0 106.666667c0 12.8 8.533333 21.333333 21.333333 21.333333l85.333333 0c12.8 0 21.333333-8.533333 21.333333-21.333333l0-106.666667 42.666667 0 0 106.666667c0 12.8 8.533333 21.333333 21.333333 21.333333l85.333333 0c12.8 0 21.333333-8.533333 21.333333-21.333333l0-64 42.666667 0 0 106.666667c0 12.8 8.533333 21.333333 21.333333 21.333333l85.333333 0c12.8 0 21.333333-8.533333 21.333333-21.333333L1002.666667 192C1002.666667 179.2 994.133333 170.666667 981.333333 170.666667zM362.666667 618.666667l-42.666667 0L320 362.666667l42.666667 0L362.666667 618.666667zM533.333333 576l-42.666667 0L490.666667 320l42.666667 0L533.333333 576zM704 576l-42.666667 0L661.333333 320l42.666667 0L704 576zM874.666667 618.666667l-42.666667 0L832 362.666667l42.666667 0L874.666667 618.666667zM170.666667 725.333333c-110.933333 0-149.333333 42.666667-149.333333 106.666667s38.4 106.666667 149.333333 106.666667 149.333333-42.666667 149.333333-106.666667S281.6 725.333333 170.666667 725.333333z" /></svg>