<?xml version="1.0" standalone="no"?><!DOCTYPE svg PUBLIC "-//W3C//DTD SVG 1.1//EN" "http://www.w3.org/Graphics/SVG/1.1/DTD/svg11.dtd"><svg class="icon" width="200px" height="200.00px" viewBox="0 0 1024 1024" version="1.1" xmlns="http://www.w3.org/2000/svg"><path fill="#606266" d="M1010.102067 457.03168l-464.896 302.85824a65.9456 65.9456 0 0 1-66.41664 0L13.893427 457.03168a23.90016 23.90016 0 0 1 0-43.27424l464.896-302.87872a66.08896 66.08896 0 0 1 66.43712 0l464.896 302.87872a23.90016 23.90016 0 0 1-0.02048 43.27424zM39.165747 549.7856l439.62368 286.37184a66.048 66.048 0 0 0 66.41664 0l439.6032-286.37184 25.33376 16.50688a23.87968 23.87968 0 0 1 0 43.25376l-464.896 302.87872a66.048 66.048 0 0 1-66.41664 0L13.934387 609.54624a23.90016 23.90016 0 0 1 0-43.27424z"  /></svg>