<?xml version="1.0" standalone="no"?><!DOCTYPE svg PUBLIC "-//W3C//DTD SVG 1.1//EN" "http://www.w3.org/Graphics/SVG/1.1/DTD/svg11.dtd"><svg class="icon" width="200px" height="200.00px" viewBox="0 0 1024 1024" version="1.1" xmlns="http://www.w3.org/2000/svg"><path fill="#606266" d="M960 809.6c-38.4 0-73.6-3.2-108.8-9.6 0-3.2 3.2-6.4 3.2-6.4 0-3.2 25.6-99.2-9.6-182.4-41.6-96-163.2-147.2-169.6-150.4-16-6.4-35.2 0-41.6 16-3.2 6.4-51.2 118.4-6.4 227.2 6.4 12.8 12.8 22.4 22.4 32-67.2-35.2-131.2-80-182.4-134.4 3.2 0 3.2-3.2 6.4-3.2 3.2-3.2 83.2-73.6 89.6-160 6.4-73.6-38.4-140.8-41.6-144-9.6-12.8-25.6-16-41.6-9.6-12.8 6.4-108.8 60.8-115.2 137.6-3.2 19.2 0 38.4 3.2 57.6-35.2-54.4-60.8-115.2-80-176h3.2c3.2 0 92.8-19.2 137.6-89.6 38.4-60.8-3.2-153.6-9.6-163.2-3.2-16-19.2-22.4-35.2-16-3.2 0-70.4 25.6-105.6 80-6.4 9.6-12.8 19.2-16 28.8V108.8c0-19.2-12.8-32-32-32s-32 12.8-32 32c0 57.6 6.4 112 19.2 163.2-6.4 0-9.6-6.4-12.8-9.6C160 224 96 220.8 60.8 220.8h-12.8c-16 0-32 16-28.8 32 0 3.2 3.2 96 70.4 150.4 19.2 16 48 25.6 83.2 25.6 41.6 0 76.8-12.8 80-12.8 3.2 0 9.6-3.2 12.8-6.4 16 35.2 32 67.2 51.2 99.2l-28.8-9.6c-92.8-12.8-172.8 51.2-176 54.4-12.8 9.6-16 32-3.2 44.8 3.2 3.2 70.4 86.4 153.6 99.2h22.4c64 0 118.4-32 121.6-35.2 9.6-6.4 12.8-12.8 16-22.4 35.2 35.2 73.6 70.4 115.2 99.2-16-3.2-32-6.4-48-6.4-12.8 0-22.4 0-35.2 3.2-89.6 16-156.8 89.6-156.8 92.8-9.6 12.8-9.6 32 0 41.6 9.6 9.6 92.8 99.2 179.2 99.2 6.4 0 12.8 0 19.2-3.2 115.2-19.2 182.4-124.8 185.6-128 3.2-6.4 6.4-16 3.2-22.4 86.4 35.2 182.4 54.4 278.4 54.4 19.2 0 32-12.8 32-32s-16-28.8-35.2-28.8z" /></svg>